<svg viewBox="0 0 300 100" xmlns="http://www.w3.org/2000/svg" role="img" aria-label="PULSO">
  <title>PULSO</title>
  <!-- Logo mark (left) — Enso + pulse -->
  <g transform="translate(0,0)">
    <path
      d="M 72 12
         A 42 42 0 1 0 87 47"
      fill="none"
      stroke="#F0F0F0"
      stroke-width="7"
      stroke-linecap="round"
      stroke-linejoin="round"
    />
    <path
      d="M 14 50 L 30 50 L 36 40 L 44 62 L 50 50 L 86 50"
      fill="none"
      stroke="#E8FF47"
      stroke-width="7"
      stroke-linecap="round"
      stroke-linejoin="round"
    />
  </g>

  <!-- Wordmark "PULSO" in Barlow Condensed style — drawn as paths so no font dependency -->
  <g transform="translate(115,18)" fill="#F0F0F0">
    <!-- P -->
    <path d="M 0 0 L 0 64 L 13 64 L 13 42 L 22 42 C 33 42 41 34 41 22 C 41 10 33 0 22 0 Z M 13 12 L 22 12 C 27 12 28 17 28 22 C 28 27 27 32 22 32 L 13 32 Z" />
    <!-- U -->
    <path d="M 48 0 L 48 44 C 48 56 56 65 68 65 C 80 65 88 56 88 44 L 88 0 L 75 0 L 75 44 C 75 50 73 53 68 53 C 63 53 61 50 61 44 L 61 0 Z" />
    <!-- L -->
    <path d="M 96 0 L 96 64 L 130 64 L 130 52 L 109 52 L 109 0 Z" />
    <!-- S -->
    <path d="M 153 65 C 165 65 173 58 173 47 C 173 39 169 35 161 32 L 154 30 C 150 29 148 27 148 24 C 148 21 150 19 153 19 C 156 19 158 21 159 25 L 172 22 C 170 11 163 0 153 0 C 142 0 135 8 135 18 C 135 26 139 30 147 33 L 154 35 C 158 36 160 38 160 41 C 160 44 158 46 153 46 C 150 46 147 44 146 39 L 133 42 C 134 56 142 65 153 65 Z" />
    <!-- O -->
    <path d="M 196 65 C 209 65 217 55 217 32 C 217 9 209 0 196 0 C 184 0 175 9 175 32 C 175 55 184 65 196 65 Z M 196 53 C 192 53 188 50 188 32 C 188 14 192 12 196 12 C 200 12 204 14 204 32 C 204 50 200 53 196 53 Z" />
  </g>
</svg>
